MoBL_ARMS_module2_4_allmuscles_wrist_states		
version=1		
nRows=196		
nColumns=3		
inDegrees=yes		
		
# SIMM Motion File Header:		
name MoBL_ARMS_module2_4_allmuscles_wrist_states		
datacolumns 3		
datarows 196		
otherdata 1		
range 3.268208835 3.596976493		
endheader		
time	deviation	flexion
3.268208835	0.013171468	0.706292254
3.269904848	0.013971493	0.704272174
3.271600861	0.014722465	0.702229799
3.273296874	0.01542259	0.700161096
3.274992887	0.016074314	0.698063108
3.2766889	0.016682007	0.695933808
3.278384913	0.017249554	0.693771653
3.280080926	0.017779206	0.691575261
3.281776939	0.018271161	0.689343173
3.283472952	0.01872347	0.687073663
3.285168965	0.019133126	0.684764813
3.286864978	0.019498013	0.682414892
3.288560991	0.019818367	0.680022787
3.290257004	0.020096924	0.67758824
3.291953017	0.020338247	0.675111892
3.29364903	0.020547831	0.672595213
3.295345043	0.02073111	0.670040321
3.297041056	0.020892046	0.667449602
3.298737069	0.02103221	0.664825316
3.300433082	0.021151126	0.66216942
3.302129095	0.021247393	0.659483653
3.303825108	0.021319801	0.656769689
3.305521121	0.021367996	0.65402928
3.307217134	0.021393052	0.651264432
3.308913147	0.021397531	0.648477535
3.31060916	0.021384913	0.645671387
3.312305173	0.021359089	0.642849108
3.314001186	0.021323744	0.640014032
3.315697199	0.021281949	0.637169556
3.317393212	0.021235727	0.63431894
3.319089225	0.021185856	0.631465192
3.320785238	0.021132202	0.628611009
3.322481251	0.021074266	0.625758854
3.324177264	0.021011648	0.622911026
3.325873277	0.020944265	0.620069718
3.32756929	0.020872464	0.617237066
3.329265303	0.020796984	0.614415172
3.330961316	0.020718802	0.611606094
3.332657329	0.020638822	0.608811809
3.334353342	0.020557824	0.606034178
3.336049355	0.020476489	0.603274917
3.337745368	0.020395306	0.600535601
3.339441381	0.020314615	0.597817661
3.341137394	0.02023467	0.5951224
3.342833407	0.020155688	0.592451005
3.34452942	0.020077905	0.589804555
3.346225433	0.020001646	0.587184024
3.347921446	0.019927318	0.584590272
3.349617459	0.019855338	0.582024021
3.351313472	0.019786136	0.579485868
3.353009485	0.019720079	0.576976286
3.354705498	0.019657429	0.574495627
3.356401511	0.019598312	0.572044127
3.358097524	0.01954269	0.569621916
3.359793537	0.019490307	0.567229021
3.36148955	0.01944092	0.564865377
3.363185563	0.019394314	0.562530833
3.364881576	0.01935027	0.560225168
3.366577589	0.01930858	0.557948109
3.368273602	0.019269016	0.555699391
3.369969615	0.019231383	0.553478828
3.371665628	0.019195416	0.551286264
3.373361641	0.019160906	0.549121451
3.375057654	0.019127757	0.546984039
3.376753667	0.019095929	0.544873596
3.37844968	0.0190654	0.542789637
3.380145693	0.019036129	0.540731649
3.381841706	0.019007995	0.538699185
3.383537719	0.018980698	0.536692045
3.385233732	0.018953747	0.534710377
3.386929745	0.018926638	0.532754523
3.388625758	0.018899022	0.530824901
3.390321771	0.018870842	0.528921912
3.392017784	0.01884224	0.527045782
3.393713797	0.018813339	0.525196489
3.39540981	0.018784148	0.523373727
3.397105823	0.018754627	0.521576986
3.398801836	0.01872467	0.519805647
3.400497849	0.018694097	0.518059034
3.402193862	0.018662649	0.516336434
3.403889875	0.018630015	0.514637114
3.405585888	0.018595822	0.51296031
3.407281901	0.018559575	0.51130519
3.408977914	0.018520642	0.509670831
3.410673927	0.018478344	0.508056233
3.41236994	0.018432141	0.506460395
3.414065953	0.018381743	0.504882375
3.415761966	0.018327112	0.503321322
3.417457979	0.018268325	0.501776448
3.419153992	0.018205463	0.500247002
3.420850005	0.018138587	0.498732267
3.422546018	0.018067792	0.497231566
3.424242031	0.017993257	0.495744293
3.425938044	0.017915068	0.494269953
3.427634057	0.017833542	0.49280823
3.42933007	0.017749108	0.491359028
3.431026083	0.017662194	0.489922467
3.432722096	0.017573272	0.488498831
3.434418109	0.017482793	0.48708852
3.436114122	0.017391291	0.485691975
3.437810135	0.017299345	0.484309599
3.439506148	0.017207567	0.482941699
3.441202161	0.017116551	0.481588479
3.442898174	0.01702678	0.480250055
3.444594187	0.016938586	0.47892648
3.4462902	0.016852178	0.477617753
3.447986213	0.016767718	0.476323827
3.449682226	0.016685373	0.475044611
3.451378239	0.016605358	0.473779958
3.453074252	0.01652797	0.472529639
3.454770265	0.01645358	0.471293334
3.456466278	0.01638256	0.470070645
3.458162291	0.016315181	0.468861118
3.459858304	0.016251568	0.46766426
3.461554317	0.016191661	0.466479549
3.46325033	0.016135198	0.465306433
3.464946343	0.01608176	0.464144334
3.466642356	0.016030898	0.462992668
3.468338369	0.015982291	0.461850857
3.470034382	0.015935789	0.460718348
3.471730395	0.01589137	0.459594625
3.473426408	0.015849028	0.458479205
3.475122421	0.015808629	0.457371631
3.476818434	0.015769837	0.456271451
3.478514447	0.015732072	0.455178196
3.48021046	0.01569453	0.454091379
3.481906473	0.015656383	0.453010549
3.483602486	0.015616967	0.451935361
3.484400197	0.015597862	0.45143154
3.484600791	0.015592995	0.451305036
3.484801384	0.015588149	0.451178618
3.485804352	0.01556448	0.45054791
3.489867878	0.015473483	0.448016454
3.491685351	0.015433025	0.446896939
3.493502823	0.015392248	0.445785413
3.495051649	0.015357012	0.444844533
3.496600474	0.015321123	0.443909528
3.498520694	0.015275845	0.442758566
3.500218208	0.015235595	0.441748859
3.501915721	0.015195973	0.440746716
3.503613235	0.015158054	0.439752515
3.505310749	0.015123007	0.438766706
3.507008263	0.015091871	0.437789718
3.508705777	0.015065357	0.436821872
3.51040329	0.015043771	0.435863345
3.512100804	0.015027049	0.434914143
3.513798318	0.015014838	0.433974097
3.515495832	0.015006604	0.433042893
3.517193345	0.015001724	0.432120134
3.518890859	0.014999539	0.431205417
3.520588373	0.014999456	0.430298344
3.522285887	0.015000952	0.429398549
3.523983401	0.015003594	0.428505708
3.525680914	0.015007034	0.427619531
3.527378428	0.015010951	0.426739732
3.529075942	0.015015011	0.425866009
3.530773456	0.01501886	0.42499804
3.532470969	0.015022146	0.424135493
3.534168483	0.015024539	0.423278044
3.535865997	0.015025957	0.42242537
3.537563511	0.015026227	0.421577207
3.539261025	0.015025148	0.420733362
3.540958538	0.015022584	0.419893699
3.542656052	0.015018414	0.419058111
3.544353566	0.015012464	0.418226505
3.54605108	0.015004649	0.417398824
3.547748594	0.014995059	0.41657507
3.549446107	0.014983947	0.415755326
3.551143621	0.014971689	0.414939765
3.552841135	0.014958711	0.414128652
3.554538649	0.014945413	0.413322339
3.556236162	0.014932075	0.412521225
3.557933676	0.014918781	0.411725692
3.55963119	0.014905402	0.41093607
3.561328704	0.014891688	0.41015277
3.563026218	0.014877344	0.40937655
3.564723731	0.014862074	0.408608689
3.566421245	0.014845527	0.407851084
3.568118759	0.01482722	0.4071063
3.569816273	0.014806523	0.40637749
3.571513786	0.01478271	0.405668056
3.5732113	0.014755034	0.404981221
3.574908814	0.014722769	0.404319785
3.576606328	0.014685258	0.403686106
3.578303842	0.014641943	0.403082195
3.580001355	0.014592352	0.402509818
3.581698869	0.014535934	0.401970687
3.583396383	0.014471925	0.401466646
3.585093897	0.014399492	0.400999666
3.586791411	0.014318126	0.400571539
3.588488924	0.014227913	0.400183561
3.590186438	0.014129531	0.399836334
3.591883952	0.014023945	0.399529676
3.593581466	0.013912084	0.399262606
3.595278979	0.01379467	0.399033421
3.596976493	0.013672243	0.398839888
